<svg width="189" height="30" viewBox="0 0 189 30" fill="none" xmlns="http://www.w3.org/2000/svg">
<path fill-rule="evenodd" clip-rule="evenodd" d="M8.03946 5.01266H35.6804V11.4341C33.7287 10.615 31.5983 10.6184 29.5522 11.4746L29.5421 11.4779L15.3475 17.4275L9.20915 19.9994C8.19789 20.4242 7.27091 20.3365 6.35741 19.7264C5.44391 19.1196 5.0057 18.2972 5.0057 17.2016V14.2285V8.04642C5.0057 6.38122 6.37427 5.01266 8.03946 5.01266ZM0 29.6704H5.0057V24.6647C6.95742 25.4838 9.0878 25.4804 11.1339 24.6242L25.3353 18.6713L31.4736 16.0994C32.4848 15.6746 33.4118 15.7623 34.3253 16.3724C35.2388 16.9792 35.677 17.8016 35.677 18.8972V23.2557V29.6771H40.6861V0.00695801H8.03946C3.61017 0.00695801 0 3.61713 0 8.04642V29.6704Z" fill="#292929"/>
<path fill-rule="evenodd" clip-rule="evenodd" d="M133.33 24.6645H108.723C107.058 24.6645 105.693 23.2959 105.693 21.6341V0H100.684V21.6307C100.684 26.06 104.294 29.6702 108.723 29.6702H133.33C137.76 29.6702 141.37 26.06 141.37 21.6307V0H136.364V21.6307C136.361 23.2959 134.992 24.6645 133.33 24.6645Z" fill="#292929"/>
<path d="M189 13.0822V9.67095C189 4.32816 184.557 0 179.08 0H153.984C153.97 0 153.957 0 153.943 0H148.044V29.6702H153.164V22.7532H174.974L181.891 29.6702H188.717L181.705 22.3993C185.909 21.2768 189 17.5351 189 13.0822ZM183.165 13.7632C183.165 15.9609 181.335 17.7441 179.08 17.7441H153.164V5.00907H179.08C181.335 5.00907 183.165 6.79225 183.165 8.99004V13.7632Z" fill="#292929"/>
<path d="M89.4554 0L70.6831 23.2217L51.9143 0H47.3636V29.6702H52.3694V8.61925L69.3045 29.6702H72.0652L88.9969 8.73386V29.6702H94.006V0H89.4554Z" fill="#292929"/>
</svg>
