<svg width="550" height="87" viewBox="0 0 550 87" fill="none" xmlns="http://www.w3.org/2000/svg">
<path fill-rule="evenodd" clip-rule="evenodd" d="M23.3953 14.6947H103.832V33.5196C98.1522 31.1183 91.9527 31.1282 85.9984 33.6382L85.969 33.6481L44.6619 51.0896L26.7991 58.6294C23.8563 59.8745 21.1587 59.6176 18.5004 57.829C15.8421 56.0502 14.5669 53.6391 14.5669 50.4275V41.7117V23.5884C14.5669 18.7067 18.5494 14.6947 23.3953 14.6947ZM0 86.9804H14.5669V72.3059C20.2465 74.7072 26.446 74.6973 32.4002 72.1873L73.727 54.736L91.5898 47.1961C94.5326 45.951 97.2301 46.2079 99.8884 47.9965C102.547 49.7753 103.822 52.1864 103.822 55.398V68.1753V87.0002H118.399V0.0201416H23.3953C10.5058 0.0201416 0 10.6036 0 23.5884V86.9804Z" fill="#4276F9"/>
<path fill-rule="evenodd" clip-rule="evenodd" d="M387.999 72.3055H316.39C311.545 72.3055 307.572 68.2935 307.572 63.4217V0H292.995V63.4118C292.995 76.3966 303.501 86.9801 316.39 86.9801H387.999C400.888 86.9801 411.394 76.3966 411.394 63.4118V0H396.827V63.4118C396.817 68.2935 392.835 72.3055 387.999 72.3055Z" fill="#4276F9"/>
<path d="M550 38.3515V28.351C550 12.6883 537.071 0 521.131 0H448.101C448.061 0 448.022 0 447.983 0H430.816V86.9801H445.717V66.7025H509.183L529.312 86.9801H549.176L528.772 65.6649C541.005 62.3743 550 51.4054 550 38.3515ZM533.02 40.3476C533.02 46.7906 527.693 52.0181 521.131 52.0181H445.717V14.6844H521.131C527.693 14.6844 533.02 19.9119 533.02 26.3549V40.3476Z" fill="#4276F9"/>
<path d="M260.32 0L205.692 68.0761L151.073 0H137.831V86.9801H152.398V25.2679L201.68 86.9801H209.714L258.986 25.6039V86.9801H273.562V0H260.32Z" fill="#4276F9"/>
</svg>
